<?xml version="1.0" encoding="utf-8"?>
<!-- Generator: Adobe Illustrator 16.0.0, SVG Export Plug-In . SVG Version: 6.00 Build 0)  -->
<!DOCTYPE svg PUBLIC "-//W3C//DTD SVG 1.1//EN" "http://www.w3.org/Graphics/SVG/1.1/DTD/svg11.dtd">
<svg version="1.1" id="Layer_1" xmlns="http://www.w3.org/2000/svg" xmlns:xlink="http://www.w3.org/1999/xlink" x="0px" y="0px"
	 width="106.56px" height="95.481px" viewBox="0 0 106.56 95.481" enable-background="new 0 0 106.56 95.481" xml:space="preserve">
<g>
	
		<text transform="matrix(1 0 0 1 11.5054 50.8501)" fill="#FFFFFF" stroke="#444444" stroke-width="0.2" stroke-miterlimit="10" font-family="'Homestead-Regular'" font-size="43.3039">JJM</text>
</g>
<g>
	
		<image overflow="visible" opacity="0.2" width="138" height="36" xlink:href="265F6EE14A57B3E3.png"  transform="matrix(1 0 0 1 -16.0483 -10.0308)">
	</image>
	<g>
		<g>
			<g>
				<g>
					<path fill="#DCA459" stroke="#DCA459" stroke-width="0.2" stroke-miterlimit="10" d="M69.731,9.003h0.449v0.92h-1.797v-0.92
						h0.449v-0.92h-1.302v0.92h0.449v0.92h-1.797v-0.92h0.449V6.242h-0.449v-0.92h1.797v0.92h-0.449v0.92h1.302v-0.92h-0.449v-0.92
						h1.797v0.92h-0.449V9.003z"/>
					<path fill="#DCA459" stroke="#DCA459" stroke-width="0.2" stroke-miterlimit="10" d="M74.748,5.321
						c0.185,0,0.358,0.036,0.523,0.108c0.164,0.072,0.308,0.171,0.43,0.296s0.218,0.272,0.289,0.44
						c0.07,0.169,0.105,0.348,0.105,0.536v1.841c0,0.193-0.035,0.373-0.105,0.539c-0.071,0.167-0.167,0.312-0.289,0.438
						s-0.266,0.224-0.43,0.296c-0.165,0.072-0.339,0.108-0.523,0.108H73.85c-0.188,0-0.364-0.036-0.526-0.108
						c-0.163-0.072-0.305-0.171-0.427-0.296s-0.218-0.271-0.289-0.438c-0.07-0.167-0.105-0.346-0.105-0.539V6.702
						c0-0.188,0.035-0.367,0.105-0.536c0.071-0.168,0.167-0.315,0.289-0.44s0.264-0.224,0.427-0.296
						c0.162-0.072,0.338-0.108,0.526-0.108H74.748z M75.197,6.702c0-0.127-0.044-0.236-0.131-0.326
						c-0.088-0.09-0.194-0.135-0.318-0.135H73.85c-0.124,0-0.23,0.045-0.318,0.135c-0.087,0.09-0.131,0.198-0.131,0.326v1.841
						c0,0.127,0.044,0.236,0.131,0.326c0.088,0.09,0.194,0.135,0.318,0.135h0.897c0.124,0,0.23-0.045,0.318-0.135
						c0.087-0.09,0.131-0.198,0.131-0.326V6.702z"/>
					<path fill="#DCA459" stroke="#DCA459" stroke-width="0.2" stroke-miterlimit="10" d="M82.864,5.321v0.92h-0.449v3.682h-0.898
						l-1.751-2.867v1.946h0.449v0.92h-1.797v-0.92h0.449V6.242h-0.449v-0.92h1.348l1.751,2.867V6.242h-0.449v-0.92H82.864z"/>
					<path fill="#DCA459" stroke="#DCA459" stroke-width="0.2" stroke-miterlimit="10" d="M88.336,5.321v1.381h-0.898v-0.46h-0.897
						v0.92h0.897v0.921h-0.897v0.92h0.897v-0.46h0.898v1.381h-3.144v-0.92h0.449V6.242h-0.449v-0.92H88.336z"/>
					<path fill="#DCA459" stroke="#DCA459" stroke-width="0.2" stroke-miterlimit="10" d="M92.417,7.175
						c0.372,0.057,0.668,0.15,0.888,0.28c0.221,0.129,0.389,0.27,0.504,0.42c0.115,0.151,0.189,0.3,0.222,0.447
						s0.048,0.266,0.048,0.358c0,0.184-0.037,0.355-0.112,0.513s-0.178,0.294-0.308,0.408c-0.131,0.114-0.285,0.204-0.462,0.27
						c-0.178,0.066-0.371,0.099-0.581,0.099c-0.218,0-0.414-0.023-0.587-0.069s-0.328-0.106-0.465-0.181v0.204h-0.898V8.543h0.898
						c0.077,0.088,0.152,0.164,0.228,0.227s0.151,0.116,0.23,0.158S92.189,9,92.286,9.02c0.096,0.02,0.206,0.03,0.33,0.03
						c0.163,0,0.298-0.034,0.404-0.102c0.106-0.068,0.16-0.157,0.16-0.266c0-0.092-0.027-0.172-0.083-0.24
						c-0.056-0.068-0.127-0.126-0.215-0.174c-0.088-0.048-0.185-0.087-0.289-0.115s-0.208-0.051-0.311-0.069
						c-0.364-0.057-0.655-0.145-0.873-0.263s-0.386-0.248-0.504-0.388c-0.117-0.14-0.194-0.284-0.23-0.431
						c-0.036-0.146-0.055-0.277-0.055-0.391c0-0.188,0.037-0.364,0.112-0.526s0.179-0.304,0.312-0.424
						c0.132-0.12,0.286-0.214,0.462-0.283c0.175-0.068,0.365-0.102,0.57-0.102c0.219,0,0.409,0.022,0.571,0.065
						c0.162,0.044,0.311,0.103,0.442,0.178V5.321h0.898v1.381h-0.904c-0.073-0.083-0.144-0.157-0.212-0.22s-0.142-0.116-0.218-0.158
						c-0.077-0.042-0.162-0.073-0.254-0.095s-0.2-0.033-0.324-0.033c-0.18,0-0.317,0.044-0.413,0.131
						c-0.097,0.088-0.145,0.182-0.145,0.283C91.519,6.895,91.818,7.083,92.417,7.175z"/>
					<path fill="#DCA459" stroke="#DCA459" stroke-width="0.2" stroke-miterlimit="10" d="M99.961,5.321v1.381h-0.898v-0.46h-0.449
						v2.762h0.449v0.92h-1.796v-0.92h0.449V6.242h-0.449v0.46h-0.898V5.321H99.961z"/>
					<path fill="#DCA459" stroke="#DCA459" stroke-width="0.2" stroke-miterlimit="10" d="M104.818,8.135v0.868h0.449v0.92h-1.797
						v-0.92h0.449V8.135l-1.271-1.894h-0.365v-0.92h1.797v0.92h-0.341l0.629,0.94l0.636-0.94h-0.341v-0.92h1.797v0.92h-0.366
						L104.818,8.135z"/>
				</g>
			</g>
			<g>
				<g>
					<path fill="#DCA459" stroke="#DCA459" stroke-width="0.2" stroke-miterlimit="10" d="M2.137,5.321
						c0.185,0,0.358,0.036,0.523,0.108c0.164,0.072,0.308,0.171,0.43,0.296s0.218,0.272,0.289,0.44
						c0.07,0.169,0.105,0.348,0.105,0.536v1.841c0,0.193-0.035,0.373-0.105,0.539C3.308,9.249,3.212,9.395,3.09,9.52
						s-0.266,0.224-0.43,0.296C2.496,9.888,2.322,9.924,2.137,9.924v0.506H1.24V9.924c-0.188,0-0.364-0.036-0.526-0.108
						C0.55,9.743,0.409,9.645,0.287,9.52S0.069,9.249-0.002,9.082c-0.07-0.167-0.105-0.346-0.105-0.539V6.702
						c0-0.188,0.035-0.367,0.105-0.536c0.071-0.168,0.167-0.315,0.289-0.44S0.55,5.502,0.713,5.43
						C0.875,5.357,1.051,5.321,1.24,5.321H2.137z M2.586,6.702c0-0.127-0.044-0.236-0.131-0.326
						c-0.088-0.09-0.194-0.135-0.318-0.135H1.24c-0.124,0-0.23,0.045-0.318,0.135c-0.087,0.09-0.131,0.198-0.131,0.326v1.841
						c0,0.127,0.044,0.236,0.131,0.326c0.088,0.09,0.194,0.135,0.318,0.135h0.897c0.124,0,0.23-0.045,0.318-0.135
						c0.087-0.09,0.131-0.198,0.131-0.326V6.702z"/>
					<path fill="#DCA459" stroke="#DCA459" stroke-width="0.2" stroke-miterlimit="10" d="M9.991,5.321v0.92H9.542v2.301
						c0,0.193-0.035,0.373-0.105,0.539C9.365,9.249,9.269,9.395,9.147,9.52s-0.266,0.224-0.43,0.296
						C8.552,9.888,8.378,9.924,8.194,9.924H7.566c-0.188,0-0.364-0.036-0.526-0.108C6.876,9.743,6.735,9.645,6.613,9.52
						S6.395,9.249,6.324,9.082c-0.07-0.167-0.105-0.346-0.105-0.539V6.242H5.769v-0.92h1.797v0.92H7.117v2.301
						c0,0.127,0.043,0.236,0.131,0.326s0.193,0.135,0.318,0.135h0.628c0.124,0,0.23-0.045,0.318-0.135
						c0.087-0.09,0.131-0.198,0.131-0.326V6.242H8.194v-0.92H9.991z"/>
					<path fill="#DCA459" stroke="#DCA459" stroke-width="0.2" stroke-miterlimit="10" d="M16.72,9.003v0.92h-1.797v-0.92h0.424
						l-0.135-0.46h-1.386l-0.135,0.46h0.424v0.92h-1.797v-0.92h0.437l1.077-3.682h1.373l1.078,3.682H16.72z M14.943,7.623
						l-0.404-1.381H14.5l-0.404,1.381H14.943z"/>
					<path fill="#DCA459" stroke="#DCA459" stroke-width="0.2" stroke-miterlimit="10" d="M22.186,8.543v1.381h-3.144v-0.92h0.449
						V6.242h-0.449v-0.92h1.797v0.92H20.39v2.762h0.897v-0.46H22.186z"/>
					<path fill="#DCA459" stroke="#DCA459" stroke-width="0.2" stroke-miterlimit="10" d="M25.863,9.003h0.449v0.92h-1.797v-0.92
						h0.449V6.242h-0.449v-0.92h1.797v0.92h-0.449V9.003z"/>
					<path fill="#DCA459" stroke="#DCA459" stroke-width="0.2" stroke-miterlimit="10" d="M32.233,5.321v1.381h-0.898v-0.46h-0.449
						v2.762h0.449v0.92h-1.796v-0.92h0.449V6.242h-0.449v0.46H28.64V5.321H32.233z"/>
					<path fill="#DCA459" stroke="#DCA459" stroke-width="0.2" stroke-miterlimit="10" d="M37.09,8.135v0.868h0.449v0.92h-1.797
						v-0.92h0.449V8.135l-1.271-1.894h-0.365v-0.92h1.797v0.92h-0.341l0.629,0.94l0.636-0.94h-0.341v-0.92h1.797v0.92h-0.366
						L37.09,8.135z"/>
				</g>
			</g>
		</g>
	</g>
</g>
<g>
	
		<text transform="matrix(1 0 0 1 31.2729 74.2573)" fill="#FFFFFF" stroke="#444444" stroke-width="0.2" stroke-miterlimit="10" font-family="'AlwaysInMyHeart'" font-size="22">home</text>
</g>
<g>
	
		<line fill="none" stroke="#DCA459" stroke-width="2" stroke-linecap="round" stroke-miterlimit="10" x1="20.36" y1="70.559" x2="4.274" y2="70.559"/>
	
		<line fill="none" stroke="#DCA459" stroke-width="2" stroke-linecap="round" stroke-miterlimit="10" x1="102.026" y1="70.559" x2="85.94" y2="70.559"/>
</g>
<g>
	<g>
		<path fill="#FFFFFF" stroke="#444444" stroke-width="0.2" stroke-miterlimit="10" d="M24.111,84.455
			c-0.208,0.423-0.582,0.717-1.034,0.825c0.182,0.426,0.19,0.891-0.018,1.312c-0.313,0.637-0.625,1.272-0.938,1.909
			c-0.05,0.102-0.207,0.151-0.345,0.083c-0.162-0.08-0.324-0.161-0.486-0.243c-0.137-0.07-0.191-0.227-0.139-0.327
			c0.323-0.631,0.646-1.262,0.97-1.893c0.181-0.355-0.002-0.816-0.404-1.029c-0.244-0.13-0.488-0.261-0.731-0.394
			c-0.456,0.835-0.912,1.67-1.368,2.505c-0.054,0.1-0.229,0.134-0.349,0.067c-0.16-0.088-0.319-0.177-0.479-0.267
			c-0.134-0.075-0.181-0.233-0.125-0.332c1.05-1.849,2.1-3.697,3.15-5.546c0.127-0.223,0.411-0.291,0.651-0.157
			c0.369,0.206,0.74,0.407,1.113,0.604c0.857,0.454,1.226,1.457,0.833,2.268C24.312,84.045,24.211,84.25,24.111,84.455z
			 M23.52,83.392c0.182-0.356,0.015-0.81-0.367-1.012c-0.232-0.123-0.464-0.248-0.695-0.374c-0.344,0.63-0.688,1.261-1.032,1.891
			c0.239,0.131,0.479,0.26,0.72,0.388c0.397,0.21,0.875,0.085,1.062-0.284C23.312,83.798,23.416,83.595,23.52,83.392z"/>
		<path fill="#FFFFFF" stroke="#444444" stroke-width="0.2" stroke-miterlimit="10" d="M28.191,84.753
			c-0.275,0.663-0.55,1.326-0.826,1.989c0.424,0.177,0.851,0.349,1.278,0.515c0.132,0.052,0.199,0.184,0.153,0.305
			c-0.055,0.142-0.109,0.284-0.164,0.427c-0.046,0.119-0.187,0.173-0.321,0.12c-0.434-0.169-0.866-0.343-1.297-0.521
			c-0.277,0.667-0.554,1.335-0.831,2.002c0.446,0.186,0.893,0.365,1.342,0.54c0.139,0.054,0.211,0.188,0.165,0.309
			c-0.055,0.143-0.109,0.285-0.164,0.427c-0.045,0.119-0.191,0.171-0.332,0.115c-0.623-0.242-1.243-0.494-1.859-0.757
			c-0.28-0.118-0.412-0.409-0.315-0.631c0.817-1.88,1.634-3.761,2.451-5.641c0.103-0.235,0.375-0.334,0.625-0.228
			c0.551,0.233,1.104,0.459,1.661,0.676c0.125,0.049,0.188,0.18,0.142,0.299c-0.054,0.142-0.109,0.284-0.164,0.426
			c-0.046,0.12-0.181,0.175-0.309,0.125C29.013,85.089,28.602,84.923,28.191,84.753z"/>
		<path fill="#FFFFFF" stroke="#444444" stroke-width="0.2" stroke-miterlimit="10" d="M35.447,87.987
			c-0.448,1.673-0.896,3.345-1.344,5.017c-0.029,0.109-0.172,0.19-0.316,0.15c-0.172-0.047-0.344-0.094-0.516-0.143
			c-0.145-0.04-0.227-0.183-0.195-0.292c0.475-1.664,0.95-3.329,1.425-4.994c0.109-0.385-0.137-0.795-0.542-0.917
			c-0.42-0.126-0.851,0.082-0.972,0.464c-0.518,1.651-1.037,3.304-1.555,4.955c-0.034,0.108-0.181,0.182-0.324,0.137
			c-0.17-0.055-0.341-0.109-0.511-0.165c-0.143-0.047-0.218-0.192-0.182-0.3c0.545-1.644,1.09-3.286,1.636-4.93
			c0.288-0.853,1.259-1.308,2.17-1.035C35.118,86.204,35.675,87.117,35.447,87.987z"/>
		<path fill="#FFFFFF" stroke="#444444" stroke-width="0.2" stroke-miterlimit="10" d="M41.637,89.302
			c-0.196,1.239-0.393,2.479-0.589,3.719c-0.138,0.903-1.107,1.505-2.143,1.31c-1.051-0.198-1.738-1.11-1.538-2.002
			c0.268-1.227,0.536-2.452,0.805-3.679c0.197-0.878,1.11-1.434,2.039-1.26C41.127,87.563,41.773,88.413,41.637,89.302z
			 M40.674,89.142c0.068-0.396-0.217-0.777-0.631-0.855c-0.428-0.08-0.833,0.172-0.913,0.564c-0.249,1.23-0.497,2.461-0.745,3.691
			c-0.083,0.405,0.222,0.803,0.69,0.891c0.452,0.085,0.88-0.174,0.951-0.582C40.242,91.615,40.458,90.378,40.674,89.142z"/>
		<path fill="#FFFFFF" stroke="#444444" stroke-width="0.2" stroke-miterlimit="10" d="M47.966,88.564
			c-0.078,1.477-0.157,2.954-0.235,4.431c-0.018,0.328-0.146,0.635-0.356,0.895c-0.317,0.435-0.641,0.866-0.97,1.296
			c-0.053,0.067-0.14,0.104-0.239,0.097c-0.309-0.022-0.617-0.048-0.925-0.076c-0.1-0.009-0.178-0.059-0.221-0.135
			c-0.255-0.477-0.504-0.956-0.747-1.436c-0.165-0.291-0.241-0.614-0.205-0.941c0.164-1.47,0.327-2.939,0.491-4.409
			c0.014-0.128,0.128-0.216,0.26-0.201c0.157,0.017,0.314,0.033,0.472,0.049c0.132,0.013,0.227,0.122,0.214,0.25
			c-0.14,1.473-0.28,2.944-0.419,4.417c-0.008,0.085,0,0.157,0.025,0.231c0.217,0.432,0.44,0.862,0.667,1.291
			c0.3-0.386,0.595-0.773,0.884-1.164c0.021-0.07,0.042-0.14,0.048-0.226c0.102-1.476,0.204-2.95,0.306-4.426
			c0.009-0.129,0.134-0.22,0.252-0.212c0.157,0.01,0.314,0.02,0.472,0.028C47.875,88.331,47.972,88.435,47.966,88.564z"/>
		<path fill="#FFFFFF" stroke="#444444" stroke-width="0.2" stroke-miterlimit="10" d="M54.203,89.979
			c0.088,1.725,0.177,3.448,0.266,5.173c0.006,0.127-0.104,0.233-0.252,0.24c-0.177,0.009-0.354,0.017-0.53,0.023
			c-0.148,0.006-0.269-0.091-0.273-0.218c-0.033-0.946-0.067-1.892-0.1-2.838c-0.542,0.019-1.084,0.031-1.626,0.036
			c0.009,0.946,0.018,1.894,0.027,2.84c0.001,0.127-0.115,0.229-0.263,0.229c-0.177,0.001-0.354,0.001-0.531,0.001
			c-0.149-0.001-0.264-0.103-0.263-0.229c0.012-1.727,0.023-3.452,0.035-5.179c0.011-0.899,0.785-1.633,1.727-1.654
			C53.346,88.383,54.152,89.082,54.203,89.979z M53.23,90.021c-0.015-0.399-0.373-0.714-0.792-0.705
			c-0.434,0.011-0.776,0.341-0.774,0.74c0.005,0.476,0.009,0.951,0.014,1.427c0.534-0.005,1.068-0.017,1.603-0.036
			C53.264,90.972,53.247,90.497,53.23,90.021z"/>
		<path fill="#FFFFFF" stroke="#444444" stroke-width="0.2" stroke-miterlimit="10" d="M59.445,88.04
			c0.021,0.15,0.043,0.301,0.064,0.451c0.019,0.128-0.072,0.241-0.207,0.26c-0.224,0.031-0.447,0.061-0.671,0.089
			c0.249,1.959,0.498,3.917,0.747,5.875c0.015,0.112-0.087,0.24-0.234,0.259c-0.176,0.021-0.352,0.042-0.527,0.062
			c-0.148,0.018-0.276-0.084-0.289-0.196c-0.218-1.962-0.435-3.924-0.652-5.886c-0.225,0.024-0.449,0.049-0.674,0.07
			c-0.134,0.014-0.248-0.075-0.261-0.204c-0.014-0.151-0.028-0.303-0.043-0.454c-0.012-0.127,0.082-0.236,0.214-0.249
			c0.757-0.075,1.512-0.165,2.266-0.27C59.31,87.829,59.426,87.913,59.445,88.04z"/>
		<path fill="#FFFFFF" stroke="#444444" stroke-width="0.2" stroke-miterlimit="10" d="M64.25,93.909
			c0.025,0.124-0.069,0.246-0.216,0.275c-0.175,0.035-0.349,0.069-0.523,0.103c-0.146,0.028-0.279-0.05-0.303-0.174
			c-0.406-2.165-0.812-4.329-1.219-6.493c-0.023-0.126,0.06-0.243,0.19-0.269c0.156-0.029,0.312-0.06,0.467-0.091
			c0.117-0.023,0.254,0.05,0.279,0.176C63.368,89.593,63.809,91.75,64.25,93.909z"/>
		<path fill="#FFFFFF" stroke="#444444" stroke-width="0.2" stroke-miterlimit="10" d="M69.346,87.226
			c0.379,1.196,0.758,2.394,1.137,3.59c0.281,0.869-0.324,1.843-1.343,2.132c-1.034,0.295-2.057-0.215-2.276-1.102
			c-0.309-1.217-0.616-2.434-0.925-3.65c-0.216-0.873,0.354-1.778,1.267-2.039C68.106,85.901,69.07,86.37,69.346,87.226z
			 M68.407,87.515c-0.115-0.384-0.544-0.598-0.951-0.481c-0.421,0.12-0.672,0.527-0.567,0.914c0.327,1.211,0.655,2.423,0.983,3.635
			c0.107,0.399,0.559,0.618,1.019,0.487c0.445-0.127,0.714-0.551,0.595-0.946C69.125,89.92,68.766,88.718,68.407,87.515z"/>
		<path fill="#FFFFFF" stroke="#444444" stroke-width="0.2" stroke-miterlimit="10" d="M75.331,84.976
			c0.694,1.586,1.388,3.172,2.082,4.758c0.045,0.104-0.018,0.256-0.156,0.316c-0.166,0.071-0.332,0.143-0.498,0.213
			c-0.14,0.059-0.293-0.001-0.337-0.105c-0.668-1.597-1.335-3.194-2.003-4.791c-0.155-0.369-0.606-0.535-1.003-0.376
			c-0.409,0.165-0.618,0.598-0.475,0.971c0.625,1.614,1.251,3.229,1.876,4.843c0.041,0.105-0.028,0.256-0.169,0.31
			c-0.168,0.064-0.336,0.128-0.505,0.19c-0.141,0.053-0.291-0.014-0.33-0.12c-0.599-1.624-1.198-3.248-1.797-4.873
			c-0.307-0.846,0.17-1.808,1.059-2.166C73.951,83.792,74.965,84.154,75.331,84.976z"/>
		<path fill="#FFFFFF" stroke="#444444" stroke-width="0.2" stroke-miterlimit="10" d="M80.311,83.071
			c-0.077-0.143-0.154-0.284-0.232-0.426c-0.192-0.351-0.662-0.467-1.044-0.266c-0.382,0.202-0.549,0.656-0.367,1.013
			c0.085,0.165,0.085,0.165,0.151,0.194c1.047,0.446,2.117,0.866,3.21,1.257c0.568,0.205,0.57,0.203,0.795,0.6
			c0.448,0.779,0.041,1.868-0.913,2.372c-0.955,0.506-2.075,0.227-2.468-0.582c-0.071-0.146-0.143-0.29-0.214-0.436
			c-0.058-0.115,0.002-0.256,0.133-0.321c0.157-0.077,0.313-0.156,0.47-0.235c0.132-0.066,0.28-0.031,0.339,0.084
			c0.074,0.144,0.147,0.288,0.222,0.432c0.181,0.356,0.675,0.473,1.092,0.252s0.6-0.695,0.407-1.045
			c-0.089-0.163-0.089-0.163-0.16-0.189c-1.095-0.4-2.166-0.828-3.214-1.283c-0.542-0.239-0.541-0.241-0.742-0.65
			c-0.393-0.81-0.011-1.819,0.833-2.267c0.844-0.445,1.9-0.197,2.349,0.583c0.08,0.14,0.16,0.28,0.239,0.421
			c0.063,0.112,0.016,0.254-0.108,0.324c-0.148,0.083-0.296,0.165-0.444,0.247C80.518,83.218,80.373,83.183,80.311,83.071z"/>
	</g>
</g>
<g>
	<path fill="#FFFFFF" stroke="#444444" stroke-width="0.2" stroke-miterlimit="10" d="M55.616,6.078h0.633
		c0,0,0.475,0.475,0.475,0.792s0,5.202,0,5.202c0,0.436-0.356,0.788-0.792,0.788l0,0c-0.435,0-0.79-0.352-0.79-0.788
		c0,0,0-4.886,0-5.202S55.616,6.078,55.616,6.078z M57.751,0.299c-0.077,0-0.315,0.079-0.315,0.079s-0.158,0.071-0.158,0.159h-0.634
		c0,0-1.3,0-1.584,0c-0.267,0-1.583,0.316-1.583,1.899c0,0.101,0.023,0.252,0.159,0c0.178-0.331,0.708-0.712,1.424-0.712
		c0.187,0,0.373,0,0.556,0v0.87v3.167h0.633V2.593v-0.87c0.421,0,0.786,0,1.028,0c0.001,0.087,0.159,0.159,0.159,0.159
		s0.158,0.079,0.315,0.079c0.159,0,0.159-0.071,0.159-0.158V0.457C57.911,0.37,57.832,0.299,57.751,0.299z"/>
	<path fill="#FFFFFF" stroke="#444444" stroke-width="0.2" stroke-miterlimit="10" d="M51.966,6.225c0,0-0.061,0.372-0.074,0.444
		c-0.013,0.072-0.066,0.148-0.148,0.148H51.62c0.063,0.722,0.181,2.126,0.181,2.667c0,0.74-0.164,1.661-0.238,2.201
		c-0.074,0.54-0.313,0.737-0.757,0.737c-0.407,0-0.667-0.197-0.74-0.737c-0.075-0.54-0.223-1.46-0.223-2.201
		c0-0.54,0.118-1.943,0.183-2.666h-0.208c-0.082,0-0.125-0.074-0.147-0.148c-0.023-0.075-0.075-0.444-0.075-0.444
		c0-0.082,0.067-0.148,0.148-0.148h2.074C51.899,6.076,51.966,6.143,51.966,6.225z M49.695,5.78h2.222l0.593-2.963l0.222-2.222
		l-3.851,0l0.222,2.222L49.695,5.78z"/>
	<path fill="#FFFFFF" stroke="#444444" stroke-width="0.2" stroke-miterlimit="10" d="M46.534,0.1l0.64,0l0.319,1.359l-0.319,0.48
		v0.558v3.2h-0.64l-0.001-3.2V1.939l-0.319-0.48L46.534,0.1z M47.946,6.017h-2.239c-0.088,0-0.16,0.072-0.16,0.16
		c0,0,0.056,0.4,0.081,0.48c0.024,0.079,0.071,0.16,0.16,0.16h0.223c-0.069,0.78-0.197,2.295-0.197,2.878
		c0,0.799,0.16,1.793,0.24,2.375c0.08,0.583,0.36,0.795,0.799,0.796c0.48,0,0.737-0.213,0.817-0.796
		c0.08-0.582,0.258-1.576,0.258-2.375c0-0.583-0.127-2.098-0.197-2.878h0.135c0.088,0,0.146-0.083,0.16-0.16
		c0.014-0.078,0.08-0.48,0.08-0.48C48.106,6.089,48.034,6.017,47.946,6.017z"/>
</g>
</svg>
