<?xml version="1.0" encoding="utf-8"?>
<!-- Generator: Adobe Illustrator 16.0.0, SVG Export Plug-In . SVG Version: 6.00 Build 0)  -->
<!DOCTYPE svg PUBLIC "-//W3C//DTD SVG 1.1//EN" "http://www.w3.org/Graphics/SVG/1.1/DTD/svg11.dtd">
<svg version="1.1" id="Layer_1" xmlns="http://www.w3.org/2000/svg" xmlns:xlink="http://www.w3.org/1999/xlink" x="0px" y="0px"
	 width="88.742px" height="40.594px" viewBox="0 0 88.742 40.594" enable-background="new 0 0 88.742 40.594" xml:space="preserve">
<g>
	<path fill="#444444" d="M56.735,19.032h2.013c0,0,1.51,1.508,1.51,2.514s0,16.545,0,16.545c0,1.386-1.137,2.505-2.521,2.505l0,0
		c-1.379,0-2.509-1.119-2.509-2.505c0,0,0-15.539,0-16.545S56.735,19.032,56.735,19.032z M63.523,0.652c-0.242,0-1,0.254-1,0.254
		S62.02,1.13,62.02,1.41h-2.019c0,0-4.131,0-5.037,0c-0.848,0-5.03,1.006-5.03,6.04c0,0.32,0.071,0.805,0.503,0
		c0.564-1.052,2.248-2.264,4.527-2.264c0.597,0,1.187,0,1.771,0V7.95v10.074h2.013V7.95V5.186c1.336,0,2.496,0,3.268,0
		c0.006,0.276,0.509,0.503,0.509,0.503s0.504,0.248,1,0.248c0.511,0,0.511-0.224,0.511-0.503V1.155
		C64.033,0.879,63.778,0.652,63.523,0.652z"/>
	<path fill="#444444" d="M45.126,20.891c0,0-0.194,1.183-0.234,1.412c-0.042,0.229-0.211,0.471-0.472,0.471h-0.395
		c0.202,2.3,0.576,6.765,0.576,8.479c0,2.354-0.522,5.279-0.757,7c-0.235,1.715-0.995,2.343-2.408,2.343
		c-1.293,0-2.119-0.628-2.354-2.343c-0.237-1.721-0.708-4.646-0.708-7c0-1.715,0.376-6.18,0.58-8.479h-0.659
		c-0.26,0-0.397-0.235-0.469-0.471c-0.073-0.236-0.238-1.412-0.238-1.412c0-0.258,0.213-0.473,0.473-0.473h6.594
		C44.916,20.418,45.126,20.633,45.126,20.891z M37.905,19.479h7.065l1.883-9.424l0.708-7.064L35.315,2.987l0.706,7.068
		L37.905,19.479z"/>
	<path fill="#444444" d="M27.854,0h2.034l1.015,4.323l-1.015,1.525v1.773v10.177h-2.034L27.851,7.621V5.848l-1.015-1.525L27.854,0z
		 M32.344,18.813h-7.119c-0.281,0-0.509,0.23-0.509,0.51c0,0,0.177,1.273,0.256,1.526c0.076,0.248,0.225,0.508,0.508,0.508h0.709
		c-0.221,2.479-0.626,7.3-0.626,9.148c0,2.547,0.508,5.709,0.764,7.559c0.254,1.853,1.145,2.529,2.542,2.529
		c1.526,0,2.343-0.678,2.598-2.529c0.255-1.85,0.819-5.012,0.819-7.559c0-1.85-0.403-6.67-0.625-9.148h0.428
		c0.28,0,0.463-0.266,0.508-0.508c0.045-0.248,0.255-1.526,0.255-1.526C32.852,19.043,32.624,18.813,32.344,18.813z"/>
</g>
<g>
	
		<line fill="none" stroke="#DCA459" stroke-width="2" stroke-linecap="round" stroke-miterlimit="10" x1="17.086" y1="20.344" x2="1" y2="20.344"/>
	
		<line fill="none" stroke="#DCA459" stroke-width="2" stroke-linecap="round" stroke-miterlimit="10" x1="87.742" y1="20.344" x2="71.655" y2="20.344"/>
</g>
</svg>
